<?xml version="1.0" encoding="UTF-8"?>
<svg version="1.1" viewBox="0 0 1820 2048" width="4167" height="4688" xmlns="http://www.w3.org/2000/svg">
<path transform="translate(903,120)" d="m0 0h43l16 2 17 3 11 4 16 1 9 2 29 1 13 2 24 1 19 5 25 2 8 4 1 1 16 3 11 3 18 2 10 6 13 4 19 2 9 6 26 10 17 2 19 7 11 7 7 6 24 12 7 6 15 9 9 4 13 5 15 12 13 8 15 9 7 3 14 11 12 9 10 10 11 9 11 7 5 10 9 6 11 8 16 12 9 7 18 18 16 7 10 9 31 31 8 13 11 27 8 16 8 15 5 11 12 18 4 5 8 13 10 22 8 14 10 21 6 15 3 9 6 15 4 11 6 12 6 20 7 19 6 22 3 12 8 24 9 11 2 5v29l3 15 1 16 5 25 1 10 1 27 4 12 6 11 5 5 7 9 9 9 5 10 1 4v8l-2 6v12l5 9v8l-5 4h-2l-2 5-14 13-3 8-11 45-1 21-4 24-8 32-3 16 1 5 5 4 5 3 18 18 1 5-7 4-7-1-4-3-9-4-5-2h-8l-3 15-5 14-4 18-9 22-6 16-14 29-9 18-4 13-8 14-14 29-9 21-8 13-12 25-8 12-9 12-9 8-8 7-32 32-7 8-8 8-8 10-11 12-10 9-10 10-9 6-16 22v7l2 7v6l-5 6h-7l-12-7-6 1-14 10-14 9-12 5-9 6-9 8-10 7-11 7-6 5-15 9-14 9-10 8-4 2-1 10-3 5-4 2h-9l-3-1h-12l-13 2-24 11-7 3-6 5-16 8-19 6-10 4-9 3-7 2-15 10-16 10-8 6-7 10-5 3-12 2-5 3-4 5-2 7 1 10 4 11-1 8-5 6-2 1-9-1-5-5-6-8-8-17-7-8-9-5-3-1h-8l-9 4-11 7-3 1h-23l-2 5v7l4 5 1 3v19l-3 9-6 4h-10l-16-9-3-9-3-12-23 7-5 2h-9l-5-3-3-5-4-8-12-6-29-5-18-6-10-5-8-2-21-1-36 4-9 4-10 9-5 2-4-5-3-5-2-7-8 2-10-4-8-6-6-9-1-6-4-2-3-2-19-3-10-1-5-5-10-1-3-1 7 9 5 10 3 8-2 4-2 1-12 1-4 2-1 21-5 5-3 1-3 6 2 5 13 8 10 4 9 3 4 5 3 7v7l-5 9-18 18-12 7-8 5-9 1-9-4-4-5-2-12v-14l3-14 3-10v-5h-14l-12-3-3-3v-9l3-12v-5l-8-5-13-1-7-3 2-2 11-4h2l-6-18-7-9-6-5-3-6-2-12-8-14-5-5-7-4-12-3-20-4-13-4-20-12-8-5-8-6-12-7-13-11-8-8-9-7-13-12-7-8-8-7-13-11-12-9-16-17-9-11-11-9-6-4h-13l-13 5-16 9-3-1 1-3-4-7-5-3h-32l-18 2-17 1-21 5-2 1 5 13v3l-6 2-14 1-14 7-4-1-6-1-10 3-6 1 1-3 8-7 7-6 8-3-3-7-5-1-8 7-7 6h-6l-4-5 1-5 4-8 6-7 3-6-10-12-13-9-12-12-10-15-7-9-8-7-10-6-14-14-5 1-18 10-6 3-6 8-5 2h-11l-2-4 6-10 5-3h8l12-14 11-11-6-12-9-14-1-12-5-1-7 5h-8l-4-2v-7l4-6 8-6 2-4 1-16-2-8 3-6 14-13 9-14 4-8 12-11 5-5 8-9 5-9h9l7-3 8-12 2-7 5-4 2-9-4-17-2-9-7-6-2-3v-6l5-6 6-4 7-14 1-6v-12l-5-28-7-29-3-13-1-22-3-13-2-3-2-12-5-10-8-5-32-16-6-1-5 5-11 16-7 11-5 8-8 5-3 1h-10l-6-4-4-7 1-7 13-18 8-8 6-5 8-12 2-12-1-9-4-19-1-9v-30l2-19 6-24 4-11 9-10 8-11 11-27 2-11 5-16v-17l10-23 7-17 6-18 6-10 4-5 9-19 6-15 10-16 2-2 3-9 6-11 10-16 4-12 4-19 7-10 1-4v-12l-4-16-4-13-2-13v-10l2-13 3-1 6-20 15-15 14-7 19-6 13-3 13-2 10-4 10-8 7-9 7-6 6-9 11-12 8-10 11-12 8-10 22-22 10-7 17-17 11-14 9-8 11-9 25-25 14-9 12-7 5-8 10-27 3-12 4-7 11-3-5-5 1-5 4-9 2-4 3-3v-2l3-1v2h2l1-8-9 1-4 2h-3l1-7 4-5 7-1 7 3 3 4 1 6 10-2 1-1 22-2 13 1 28 7 7 1 8-2 26-10 19-7 16-3 24-6 25-6 22-9 25-5 12-3 11-6 4-5 9-4 6 1 4 2h6l2-1 32-2h21l18 1 9-4zm-391 74-3 3 8 2 7-1 3-4zm390 31-21 3-10 2-12 6-8 8-8 12-8 10-6 7-10 8-3 5-5 3h-8l-10-7-6-2-5 6-10 24-4 10-9 13-9 9-4 5-9 4-7 2-8 9-8 14-7 15-5 12-5 10-1 4v15l-1 4-10 4-8 2-3 4v9l5 16 5 8 4 14 11 9 5 3 5 2 4 2 4-1 3-8 4-14 2-15 5-29 6-10 4-3h5l-1 9-12 46-7 21-12 6-6 2h-17l-17-12-10-10-11-22-7-7-13-8-9-7-5-2-6-1h-17l-10 5-5 3h-8l-11-4-7-1h-9l-15 3-13 5-10 4h-64l-28-5h-24l-8 5-3 5-1 8 6 31 1 8v61l-4 28-5 14-7 13-9 11-10 10-10 7-14 7-24 10-14 7-11 9-9 10-8 13-11 21-16 26-8 11-7 10-3 4-6 16-11 27-4 15-6 17-2 11-1 43-2 24v46l2 16 1 36 2 19 1 27 2 14 4 14 7 44 3 5 15 52 7 21 9 26 12 21 6 16 10 20 13 23 11 17 9 13 12 21 4 5 14 18 6 10 9 10 13 16 8 11 8 10 14 14 10 8 16 13 6 5 6 7 21 12 14 10 16 13 11 10 11 9 13 13 12 9 11 7 13 10 10 6 13 4 4 5 12 7 33 15 17 8 18 8 39 13 12 1 6 2 8-1 4-1 4 1 1 4 2 1h17l5-10v-2l8 4 5 4 5 1h14l7-3 1-2 9-1 28 6 6 2 9-1 5-5 4-3 9 1 5 2 7-1 2-1h8l33 8 7-2 10-8h7l3 3 3 14 5-1 4-8 4-2 5 1 6 3 3 2 5-1 3-6 1-6 6 1 12 13 4 6 6 3h7l9-7 5-1v-17l5-6 2-1h11l6 5 1 3 1 18 3 8 5 3h28l28-10 47-12h12l6 1h8l13-4 10-6 9-4 18-6 24-13 16-9 14-10 44-29 19-12 10-9 14-11 14-10 11-6 16-14 15-12 5-3 3-6 10-9 11-14 6-8 9-9 9-12 8-10 12-18 8-10 8-11 14-26 8-11 3-4 4-10 17-34 9-17 12-26 8-16 3-11 7-19 5-20 5-8 8-20 6-21 5-24 12-48 5-36 2-13 1-28 2-20v-18l-2-20-3-42-1-23-5-28-10-47-6-15-5-18-5-19-5-14-2-18-3-8-4-5-20-9-12-7-11-9-8-10-4-10-1-4v-13l2-16 4-15 4-16-2-9-9-16-18-27-4-5-9-17-10-14-8-9-14-19-12-13-10-9-12-16-12-13-11-9-8-8-10-7-9-7-23-13-10-9-15-10-13-8-3-3-29-13-16-7-18-4-15-1-5-2-14-1h-16l-14 2h-15l-13-4-23-10-22-11-14-11-12-9-10-9-8-7-10-9-11-9-16-13-2-1v-12l-4-5-4-2h-14l-12 5-8 7-14 12-8 8-11 6-7 2-10-1-12-6-9-9-9-12-8-13-7-6-12-3z" fill="#EE3E38"/>
<path transform="translate(886,320)" d="m0 0h19l13 4 11 6 13 10 8 8 11 14 12 18 11 19 12 23 15 31 13 30 19 46 26 65 16 39 43 108 26 65 17 42 18 44 17 41 19 45 15 35 17 39 12 27 18 40 14 30 16 34 34 68 12 22 14 25 14 23 16 24 13 17 11 12v3l-7 8-14 14-11 9-13 10-21 11-16 5-13 2h-16l-12-3-12-6-12-9-10-9-7-7-11-14-9-12-13-20-12-21-14-26-14-29-15-34-15-37-18-47-31-82v-2h-418l-3 9-13 28-17 39-16 38-14 35-13 35-12 36-8 29-7 31-4 25-2 22-1 24-1 4-24 3h-31l-18-2-20-5-17-8-12-9-8-9-8-14-4-14-1-6v-20l5-19 10-28 18-43 18-40 18-39 18-38 17-35 12-25 12-24 11-23 34-68 11-23 15-30 11-23 19-39 11-23 19-40 18-38 16-34 15-33 16-34 16-36 18-39 16-36 19-43 17-39-2-5-9-12-11-14-9-10-7-8-11-12-7-8 4-6 9-10 7-8 17-17 14-11 14-8 12-5zm29 261-23 54-39 91-69 162-24 56-11 26v2h324l-7-20-15-40-22-57-22-56-21-52-18-44-20-48-23-54-8-19z" fill="#EE3E38"/>
<path transform="translate(490,190)" d="m0 0 2 1z" fill="#F69E9B"/>
<path transform="translate(676,512)" d="m0 0" fill="#FEFEFE"/>
<path transform="translate(489,189)" d="m0 0" fill="#FEFEFE"/>
</svg>
